<?xml version="1.0" standalone="no"?>
<!DOCTYPE svg PUBLIC "-//W3C//DTD SVG 20010904//EN"
 "http://www.w3.org/TR/2001/REC-SVG-20010904/DTD/svg10.dtd">
<svg version="1.0" xmlns="http://www.w3.org/2000/svg"
 width="218.000000pt" height="196.000000pt" viewBox="0 0 218.000000 196.000000"
 preserveAspectRatio="xMidYMid meet">

<g transform="translate(0.000000,196.000000) scale(0.100000,-0.100000)"
fill="#000000" stroke="none">
<path d="M331 1943 c-53 -4 -55 -5 -150 -101 -53 -53 -113 -123 -134 -154 -34
-52 -37 -62 -37 -128 0 -39 6 -85 14 -104 36 -86 136 -153 210 -141 76 12 149
70 176 140 13 35 34 31 48 -9 17 -47 91 -112 143 -126 45 -12 97 -7 140 16 37
19 97 90 104 125 9 40 28 36 44 -7 18 -49 79 -108 134 -129 95 -36 209 14 257
112 28 58 45 66 55 26 16 -64 97 -136 164 -148 21 -3 58 -1 81 5 51 14 125 79
142 126 6 19 17 34 24 34 6 0 22 -21 36 -47 27 -53 98 -108 152 -118 76 -15
175 44 215 128 16 32 21 63 21 119 0 74 -1 77 -47 139 -59 81 -167 194 -213
222 l-35 22 -745 1 c-410 1 -769 -1 -799 -3z"/>
<path d="M402 1310 c-31 -40 -117 -80 -169 -80 -41 0 -42 -1 -50 -37 -4 -21
-8 -216 -8 -433 0 -333 3 -410 18 -489 20 -106 51 -187 78 -202 28 -15 204
-37 399 -50 198 -13 848 -6 995 11 166 18 238 33 255 50 27 27 58 119 72 217
14 98 18 830 5 896 -8 36 -9 37 -50 37 -51 0 -137 40 -169 79 l-23 27 -23 -27
c-65 -79 -218 -104 -321 -53 -29 15 -61 39 -73 54 l-21 28 -25 -30 c-41 -48
-115 -78 -196 -78 -93 0 -142 17 -193 65 l-42 41 -20 -27 c-77 -104 -309 -105
-392 -1 l-24 30 -23 -28z m391 -194 c20 -8 53 -26 72 -41 l35 -26 190 0 190 0
35 26 c68 53 162 69 249 43 54 -16 126 -89 165 -167 36 -69 157 -497 165 -581
12 -115 -33 -160 -155 -160 -102 0 -164 24 -229 90 -54 53 -80 105 -80 159 0
21 -2 21 -82 14 -107 -10 -409 -10 -515 0 l-83 7 0 -27 c0 -47 -44 -126 -95
-171 -57 -50 -122 -72 -214 -72 -130 0 -173 51 -152 182 19 113 121 469 158
547 40 85 114 165 164 180 49 14 138 12 182 -3z"/>
<path d="M971 793 l-105 -108 62 -3 62 -3 0 -54 0 -55 100 0 100 0 0 55 0 54
62 3 62 3 -105 108 c-58 59 -111 107 -119 107 -8 0 -61 -48 -119 -107z"/>
</g>
</svg>
